HIERARCHY
ROOT Hips
{
  OFFSET 0 0 0
  CHANNELS 6 Xposition Yposition Zposition Zrotation Xrotation Yrotation
  JOINT Spine
  {
    OFFSET 0 10 0
    CHANNELS 3 Zrotation Xrotation Yrotation
    JOINT Neck
    {
      OFFSET 0 30 0
      CHANNELS 3 Zrotation Xrotation Yrotation
      JOINT Head
      {
        OFFSET 0 8 0
        CHANNELS 3 Zrotation Xrotation Yrotation
        End Site
        {
          OFFSET 0 10 0
        }
      }
    }
    JOINT LeftArm
    {
      OFFSET 15 30 0
      CHANNELS 3 Zrotation Xrotation Yrotation
      JOINT LeftForeArm
      {
        OFFSET 25 0 0
        CHANNELS 3 Zrotation Xrotation Yrotation
        JOINT LeftHand
        {
          OFFSET 25 0 0
          CHANNELS 3 Zrotation Xrotation Yrotation
          End Site
          {
            OFFSET 10 0 0
          }
        }
      }
    }
    JOINT RightArm
    {
      OFFSET -15 30 0
      CHANNELS 3 Zrotation Xrotation Yrotation
      JOINT RightForeArm
      {
        OFFSET -25 0 0
        CHANNELS 3 Zrotation Xrotation Yrotation
        JOINT RightHand
        {
          OFFSET -25 0 0
          CHANNELS 3 Zrotation Xrotation Yrotation
          End Site
          {
            OFFSET -10 0 0
          }
        }
      }
    }
  }
  JOINT LeftUpLeg
  {
    OFFSET 10 -10 0
    CHANNELS 3 Zrotation Xrotation Yrotation
    JOINT LeftLeg
    {
      OFFSET 0 -35 0
      CHANNELS 3 Zrotation Xrotation Yrotation
      JOINT LeftToe
      {
        OFFSET 0 -40 0
        CHANNELS 3 Zrotation Xrotation Yrotation
        JOINT LeftToeEnd
        {
          OFFSET 0 0 0
          CHANNELS 3 Zrotation Xrotation Yrotation
          End Site
          {
            OFFSET 0 0 15
          }
        }
      }
    }
  }
  JOINT RightUpLeg
  {
    OFFSET -10 -10 0
    CHANNELS 3 Zrotation Xrotation Yrotation
    JOINT RightLeg
    {
      OFFSET 0 -35 0
      CHANNELS 3 Zrotation Xrotation Yrotation
      JOINT RightToe
      {
        OFFSET 0 -40 0
        CHANNELS 3 Zrotation Xrotation Yrotation
        JOINT RightToeEnd
        {
          OFFSET 0 0 0
          CHANNELS 3 Zrotation Xrotation Yrotation
          End Site
          {
            OFFSET 0 0 15
          }
        }
      }
    }
  }
}
MOTION
Frames:	9
Frame Time:	0.0333333
52.8691 88.3311 -163.882 -1.91133 6.45129 -3.09343 5.45649 9.31472 -3.79216 -2.39077 -11.577 2.83222 0.588704 -12.4144 7.12312 -94.4065 60.5599 28.8343 35.2298 -28.1809 -76.3014 -0.304375 -29.6625 0.129753 80.4223 41.9819 -6.2783 -33.725 -26.8238 74.0791 0.215034 -11.7071 -0.889374 7.03212 -17.5135 7.58176 88.4966 88.777 -87.9665 -5.29526 16.7081 9.73004 3.86217e-032 7.95139e-016 -2.78299e-015 11.0831 -27.0249 5.92485 0.745394 39.8639 0.787588 -6.29707 -6.35792 -7.28492 1.10348e-032 1.59028e-015 -3.97569e-016 
52.7004 87.3126 -156.747 -3.62541 6.17071 -8.95712 7.70981 11.4235 0.391561 -2.9956 -11.9219 4.72865 0.323871 -12.869 7.87319 -101.23 52.641 37.6755 33.7496 -25.2079 -72.6572 -0.376089 -29.6756 0.078132 60.5872 44.1355 16.2942 -34.2297 -29.0447 76.277 0.231032 -8.64683 -0.880885 14.5934 -28.3245 14.4311 178.03 76.2506 -177.864 -3.21119 10.2365 8.74959 3.18974e-033 9.93923e-017 -1.83876e-015 13.6354 -21.72 7.42365 0.187368 41.74 1.13344 -7.16364 -12.0033 -4.36934 -9.93923e-017 -6.36111e-015 3.97569e-016 
52.4809 87.4568 -149.151 -2.46572 6.525 -12.4877 6.62482 11.4762 2.80998 -3.06295 -10.4599 5.57967 0.836003 -15.2065 7.71894 -105.434 44.679 44.9077 32.4444 -23.4963 -70.5727 -0.500459 -30.216 -0.114684 47.0128 42.2013 32.1637 -34.4858 -31.9887 79.9308 0.2342 -5.97704 -0.868595 17.7782 -38.5789 18.5572 -179.708 71.3258 179.719 -2.15923 5.88549 9.45856 -8.27607e-033 1.59028e-015 2.98177e-016 11.9292 -15.69 9.10627 -0.012427 40.1248 1.33694 -6.93257 -15.0352 -3.66051 -1.10348e-032 -1.59028e-015 -3.97569e-016 
52.3918 88.6665 -141.065 -1.09259 7.20774 -13.6507 5.67835 10.0428 4.71876 -4.83449 -10.4514 5.35652 3.34887 -14.5298 6.67711 -107.799 39.4566 50.0041 31.4566 -22.3725 -69.0269 -0.430375 -28.1975 -0.132369 39.6414 39.648 39.8573 -34.1687 -34.887 84.3306 0.364603 -5.90817 -0.797906 15.4656 -47.2756 17.0741 -177.716 75.367 177.983 -2.645 5.76249 12.6393 1.76556e-031 6.36111e-015 -1.59028e-015 9.05116 -7.90826 11.0563 0.255399 34.5203 1.40007 -6.2825 -13.0939 -4.32732 -4.41391e-032 -6.36111e-015 -3.97569e-016 
52.2878 90.9907 -132.315 -0.0604284 8.22628 -13.296 5.13103 7.83635 5.90045 -5.36771 -10.7386 4.84174 3.67048 -13.9158 4.93444 -109.657 34.5013 53.4897 30.9797 -22.0762 -68.7795 -0.464233 -30.0396 -0.212657 37.7709 39.1762 40.5458 -33.6562 -37.5557 89.1739 0.412482 -10.2322 -0.753041 9.58869 -52.5404 10.5052 -165.645 86.1591 166.087 -2.49861 4.69547 12.2747 1.19271e-015 9.54166e-015 -3.18055e-015 6.04871 -0.790485 11.9943 0.609423 27.739 1.77624 -5.55757 -3.44072 -3.71015 5.51738e-033 3.18055e-015 -9.93923e-017 
52.1377 93.4166 -123.409 -0.175743 8.65338 -12.149 5.4462 6.39517 6.1024 -6.16503 -12.2724 4.0015 4.77306 -10.8466 3.58233 -110.381 30.0421 54.1962 30.9878 -22.2198 -69.1682 -0.459838 -30.2929 -0.223632 39.1588 41.2895 37.7919 -33.2489 -39.6144 93.2873 0.409387 -11.5556 -0.754482 5.53744 -51.6086 5.41085 -5.22875 77.144 5.64345 -2.73093 3.92885 12.1108 -1.59028e-015 -9.54166e-015 -7.95139e-016 3.89368 4.55303 9.3893 0.719243 23.3468 2.82306 -4.35586 12.6475 -0.871705 -0 0 9.93923e-017 
51.8236 95.8335 -114.196 -0.873132 8.56796 -12.2297 5.9717 5.62905 7.13156 -7.55402 -14.0592 3.63385 7.28905 -7.63131 3.056 -110.749 25.6287 53.1751 31.2691 -22.7295 -69.9971 -0.453561 -30.6858 -0.17856 42.3011 45.1762 32.4133 -33.3929 -39.5732 93.4271 0.447389 -7.16554 -0.762394 5.68179 -46.4651 4.74814 -2.94457 57.0309 2.67847 -3.52163 5.78697 10.9336 -3.97569e-016 6.36111e-015 -0 1.59045 12.6071 7.65251 0.650336 10.9877 1.18223 5.19887 37.2932 -3.34036 -1.59028e-015 -3.18055e-015 1.59028e-015 
51.4128 96.8782 -105.021 -1.82449 8.76186 -12.8724 6.79792 4.05326 7.82864 -7.09949 -13.842 3.72671 7.10107 -5.66468 2.68327 -110.981 21.858 51.3208 31.8825 -23.6499 -71.33 -0.3979 -31.1398 -0.0646837 47.2549 49.5423 25.0922 -33.7165 -39.1535 92.9283 0.338289 -11.5627 -0.775036 6.80996 -41.3832 4.29678 -3.34882 39.9223 1.82644 -3.50656 6.45032 9.69147 -6.21202e-017 0 4.96962e-017 1.85819 12.5011 8.16041 0.187954 17.5664 0.962573 7.54828 35.8183 -7.14822 0 1.59028e-015 -0 
51.0306 96.9436 -95.9525 -3.33523 8.0232 -13.1152 7.88339 4.15379 8.11591 -6.59758 -13.8585 3.86577 6.95309 -5.06932 2.68423 -110.421 19.9278 47.1171 32.4733 -24.7357 -72.6384 -0.339481 -30.1231 0.0491646 54.4317 53.0273 15.3029 -34.3144 -37.2691 89.7503 0.252322 -13.2069 -0.790642 7.2478 -37.1353 2.73375 -3.54959 31.9987 1.32276 -3.82356 5.11801 10.723 7.45443e-017 0 -1.98785e-016 3.0028 10.7366 8.70948 -0.515236 28.6093 0.995698 9.65718 31.1031 -11.8967 -4.77083e-015 -3.18055e-015 7.95139e-016 
